<?xml version="1.0" encoding="UTF-8"?>
<svg width="188px" height="240px" viewBox="0 0 188 240" version="1.1" xmlns="http://www.w3.org/2000/svg" xmlns:xlink="http://www.w3.org/1999/xlink">
    <!-- Generator: Sketch 55.2 (78181) - https://sketchapp.com -->
    <title>Path</title>
    <desc>Created with Sketch.</desc>
    <g id="trump" stroke="none" stroke-width="1" fill="none" fill-rule="evenodd">
        <g id="Artboard" transform="translate(-346.000000, -452.000000)" fill="#000000">
            <path d="M467.878675,692 L412.086622,692 C419.258366,686.895601 424.28873,678.817354 427.177712,667.765259 C430.066693,656.713163 430.066693,645.547241 427.177712,634.267494 C413.166575,646.24281 399.634965,652.230469 386.582882,652.230469 C367.004757,652.230469 351.587778,637.555091 347.001132,607.515625 C342.888743,580.582221 351.587778,561.457031 370.481527,553.724609 C383.077359,548.569661 401.444477,552.191406 425.582882,564.589844 C395.713313,540.839518 380.778528,520.447754 380.778528,503.414551 C380.778528,477.951211 400.804804,452.175058 439.982649,452.000888 C479.160493,452.175058 499.186769,477.951211 499.186769,503.414551 C499.186769,520.447754 484.251985,540.839518 454.382415,564.589844 C478.52082,552.191406 496.887938,548.569661 509.483771,553.724609 C528.377519,561.457031 537.076554,580.582221 532.964165,607.515625 C528.377519,637.555091 512.96054,652.230469 493.382415,652.230469 C480.330332,652.230469 466.798722,646.24281 452.787585,634.267494 C449.898604,645.547241 449.898604,656.713163 452.787585,667.765259 C455.676567,678.817354 460.706931,686.895601 467.878675,692 Z" id="Path"></path>
        </g>
    </g>
</svg>