<?xml version="1.0" encoding="UTF-8"?>
<svg width="188px" height="240px" viewBox="0 0 188 240" version="1.1" xmlns="http://www.w3.org/2000/svg" xmlns:xlink="http://www.w3.org/1999/xlink">
    <!-- Generator: Sketch 55.2 (78181) - https://sketchapp.com -->
    <title>Path</title>
    <desc>Created with Sketch.</desc>
    <g id="trump" stroke="none" stroke-width="1" fill="none" fill-rule="evenodd">
        <g id="Artboard" transform="translate(-842.000000, -452.000000)" fill="#DE1D1D">
            <path d="M936.224849,453.154943 C962.147673,508.109463 983.386151,529.366436 1029.89204,572.1347 C983.38534,616.844642 962.146932,635.921942 936.223493,690.848251 C936.219146,691.236197 936.214769,691.620133 936.21036,692 C936.122191,691.811965 936.034078,691.624347 935.946021,691.437145 C935.857963,691.624347 935.76985,691.811965 935.681681,692 C935.677273,691.620133 935.672895,691.236197 935.668548,690.848251 C909.745109,635.921942 888.506701,616.844642 842,572.1347 C888.50589,529.366436 909.744369,508.109463 935.667192,453.154943 C935.671984,452.764748 935.676814,452.37974 935.681681,452 C935.76985,452.188035 935.857963,452.375679 935.946021,452.562932 C936.034078,452.375679 936.122191,452.188035 936.21036,452 C936.215227,452.379738 936.220057,452.764743 936.224849,453.154936 L936.224849,453.154943 Z" id="Path"></path>
        </g>
    </g>
</svg>