<?xml version="1.0" encoding="UTF-8"?>
<svg width="188px" height="240px" viewBox="0 0 188 240" version="1.1" xmlns="http://www.w3.org/2000/svg" xmlns:xlink="http://www.w3.org/1999/xlink">
    <!-- Generator: Sketch 55.2 (78181) - https://sketchapp.com -->
    <title>Path</title>
    <desc>Created with Sketch.</desc>
    <g id="trump" stroke="none" stroke-width="1" fill="none" fill-rule="evenodd">
        <g id="Artboard" transform="translate(-608.000000, -452.000000)" fill="#DE1D1D">
            <path d="M702.009711,691.207777 L702.009711,692 C701.891695,691.867825 701.77384,691.73581 701.656146,691.603954 C701.538453,691.73581 701.420598,691.867825 701.302582,692 L701.302582,691.207791 C670.395411,656.569917 650.690473,632.978524 642.187763,620.433594 C629.336699,601.473085 608,572 608,530.300781 C608,493.691882 618.533421,452 652.259858,452 C691.390337,452 699.914848,507.301147 701.656146,536.706975 C703.397445,507.301147 711.921956,452 751.052435,452 C784.778872,452 795.312293,493.691882 795.312293,530.300781 C795.312293,572 773.975594,601.473085 761.12453,620.433594 C752.62182,632.978524 732.916881,656.569918 702.009711,691.207777 L702.009711,691.207777 Z" id="Path"></path>
        </g>
    </g>
</svg>