<?xml version="1.0" encoding="UTF-8"?>
<svg width="189px" height="240px" viewBox="0 0 189 240" version="1.1" xmlns="http://www.w3.org/2000/svg" xmlns:xlink="http://www.w3.org/1999/xlink">
    <!-- Generator: Sketch 55.2 (78181) - https://sketchapp.com -->
    <title>Path</title>
    <desc>Created with Sketch.</desc>
    <g id="trump" stroke="none" stroke-width="1" fill="none" fill-rule="evenodd">
        <g id="Artboard" transform="translate(-82.000000, -452.000000)" fill="#000000">
            <path d="M176.32138,453.299161 C185.182118,489.756336 200.798459,513.975626 223.170401,525.957031 C256.730813,543.930477 270.333161,568.382444 270.331091,597.31543 C270.328919,627.681005 246.459591,644.796886 230.291211,644.796886 C215.482588,644.796886 201.790323,641.287088 189.214415,634.267494 C186.325433,645.547241 186.325433,656.713163 189.214415,667.765259 C192.103397,678.817354 197.13376,686.895601 204.305504,692 L148.025587,692 C155.197331,686.895601 160.227695,678.817354 163.116676,667.765259 C166.005658,656.713163 166.005658,645.547241 163.116676,634.267494 C150.540768,641.287088 136.848503,644.796886 122.03988,644.796886 C105.871501,644.796886 82.0021721,627.681005 82,597.31543 C81.9979304,568.382444 95.6002781,543.930477 129.16069,525.957031 C151.532632,513.975626 167.148973,489.756336 176.009711,453.299161 L176.009711,452 C176.061418,452.218373 176.113362,452.436313 176.165546,452.653821 C176.217729,452.436313 176.269674,452.218373 176.32138,452 L176.32138,453.299161 L176.32138,453.299161 Z" id="Path"></path>
        </g>
    </g>
</svg>